<?xml version="1.0" encoding="UTF-8" standalone="no"?>
<!-- Created with Inkscape (http://www.inkscape.org/) -->

<svg
   width="230.41214"
   height="551.25092"
   viewBox="0 0 230.41214 551.25091"
   version="1.1"
   id="svg5"
   xmlns:xlink="http://www.w3.org/1999/xlink"
   xmlns="http://www.w3.org/2000/svg"
   xmlns:svg="http://www.w3.org/2000/svg">
  <defs
     id="defs2">
    <linearGradient
       id="linearGradient30059">
      <stop
         style="stop-color:#ebd197;stop-opacity:1"
         offset="0"
         id="stop30055" />
      <stop
         style="stop-color:#b48811;stop-opacity:1"
         offset="0.36570367"
         id="stop30575" />
      <stop
         style="stop-color:#a2790d;stop-opacity:1"
         offset="0.65752137"
         id="stop31729" />
      <stop
         style="stop-color:#bb9b49;stop-opacity:1"
         offset="1"
         id="stop30057" />
    </linearGradient>
    <linearGradient
       xlink:href="#linearGradient30059"
       id="linearGradient30061"
       x1="1035.0078"
       y1="176.08833"
       x2="1055.8047"
       y2="306.78601"
       gradientUnits="userSpaceOnUse"
       gradientTransform="translate(52.497278,67.874069)" />
  </defs>
  <g
     id="layer1"
     transform="translate(-971.56775,-246.77609)">
    <path
       id="rect53"
       style="fill:#90603d;fill-opacity:1"
       d="m 1086.7749,410.41568 a 44.128918,44.128918 0 0 0 -44.129,44.12891 44.128918,44.128918 0 0 0 44.129,44.12891 44.128918,44.128918 0 0 0 44.1289,-44.12891 44.128918,44.128918 0 0 0 -44.1289,-44.12891 z m -46.9727,93.59571 c -4.1086,0 -7.416,3.30747 -7.416,7.41601 0,4.10853 3.3074,7.41602 7.416,7.41602 h 93.9434 c 4.1086,0 7.416,-3.30749 7.416,-7.41602 0,-4.10854 -3.3074,-7.41601 -7.416,-7.41601 z m 8.2559,20.16992 c 0,0 3.4402,93.51303 -11.42,136.78711 -8.34,24.28678 -42.10551,64.51172 -42.10551,64.51172 -1.55704,5.85567 2.85688,11.5957 8.91611,11.5957 h 168.1894 c 5.0493,2e-5 8.7292,-4.78433 7.4317,-9.66406 0,0 -34.1318,-41.42994 -42.5723,-66.30078 -14.7197,-43.37348 -11.4687,-136.92969 -11.4687,-136.92969 z m -59.9923,218.23242 c -2.71681,0 -4.9043,2.18749 -4.9043,4.9043 v 5.02344 c 0,2.7168 2.18749,4.90429 4.9043,4.90429 h 197.418 c 2.7168,0 4.9043,-2.18749 4.9043,-4.90429 v -5.02344 c 0,-2.71681 -2.1875,-4.9043 -4.9043,-4.9043 z m -4.7793,20.16992 c -6.49201,0 -11.71875,5.22674 -11.71875,11.71875 v 12.00586 c 0,6.492 5.22674,11.71875 11.71875,11.71875 h 206.9747 c 6.492,0 11.7187,-5.22675 11.7187,-11.71875 V 774.3024 c 0,-6.49201 -5.2267,-11.71875 -11.7187,-11.71875 z" />
    <path
       id="path27115"
       style="fill:url(#linearGradient30061);fill-opacity:1;stroke:none;stroke-width:0.579088px;stroke-linecap:butt;stroke-linejoin:miter;stroke-opacity:1"
       d="m 1086.7743,246.77609 a 11.709637,11.709637 0 0 0 -11.7107,11.70954 11.709637,11.709637 0 0 0 0.085,1.1808 c -3.1133,-1.1971 -6.7549,-2.02136 -10.8476,-2.19307 -0.6783,-0.0344 -1.371,-0.0499 -2.0766,-0.0453 -4.9391,0.0333 -10.4927,1.07868 -15.883,3.86359 -5.7702,3.04339 -10.9253,8.2007 -13.9027,14.99519 -0.2874,0.65801 -0.5359,1.34133 -0.7939,2.01776 -0.066,-0.0423 -0.1207,-0.0881 -0.1878,-0.13007 -3.4152,-2.1461 -8.1061,-3.83402 -13.7986,-4.07283 -4.7272,-0.23987 -10.2805,0.55334 -15.6477,3.32635 -5.02751,2.65159 -9.51935,7.14587 -12.11342,13.06565 -1.57154,3.59774 -2.64952,7.52166 -3.11373,11.64056 -0.42742,3.86915 -0.33974,7.77174 0.15834,11.63604 0.0525,0.40079 0.10787,0.80166 0.16739,1.20115 1.18285,7.94034 3.70285,15.3425 6.05667,21.71125 3.25209,8.90021 6.41776,16.7549 8.70675,23.62608 2.7063,8.13538 4.1148,14.06779 5.2728,19.01034 0.1541,0.65754 0.2847,1.18259 0.4242,1.75988 -1.5128,0.13467 -2.6953,1.38386 -2.6953,2.93276 0,1.63932 1.3195,2.95991 2.9588,2.95991 h 158.1671 c 1.6393,0 2.9589,-1.32059 2.9589,-2.95991 0,-1.63931 -1.3196,-2.95877 -2.9589,-2.95877 h -0.016 c 0.1376,-0.56997 0.2655,-1.08603 0.4173,-1.73387 1.1581,-4.94255 2.5665,-10.87496 5.2729,-19.01034 2.2889,-6.87118 5.4546,-14.72587 8.7067,-23.62608 2.3538,-6.36875 4.8738,-13.77091 6.0566,-21.71125 0.059,-0.39949 0.1149,-0.80036 0.1674,-1.20115 0.4981,-3.86431 0.5858,-7.76689 0.1583,-11.63604 -0.4642,-4.1189 -1.5421,-8.04282 -3.1136,-11.64056 -2.5941,-5.91978 -7.086,-10.41406 -12.1134,-13.06565 -5.3672,-2.77301 -10.9206,-3.56622 -15.6478,-3.32635 -5.6924,0.23881 -10.3834,1.92673 -13.7986,4.07283 -0.066,0.0419 -0.1218,0.0877 -0.1876,0.13007 -0.2581,-0.67642 -0.5067,-1.35975 -0.7941,-2.01776 -2.9773,-6.79449 -8.1324,-11.9518 -13.9026,-14.99519 -5.3903,-2.78491 -10.944,-3.8303 -15.883,-3.86359 -0.7057,-0.005 -1.3984,0.0108 -2.0766,0.0453 -4.0933,0.17172 -7.7341,0.99577 -10.8477,2.19307 a 11.709637,11.709637 0 0 0 0.085,-1.1808 11.709637,11.709637 0 0 0 -11.7097,-11.70954 z m -18.6258,19.20488 c 3.5823,0.0704 6.6604,0.66911 9.2914,1.58909 2.1213,0.7442 3.6902,1.54043 5.0059,2.43511 2.3435,1.59616 3.4706,3.14237 4.1962,3.31505 0,10e-4 0.01,0.006 0.01,0.007 0.039,0.0114 0.083,-0.004 0.1233,-0.003 0.041,-5.3e-4 0.086,0.0149 0.1243,0.003 0,-5.8e-4 0.01,-0.006 0.01,-0.007 0.7256,-0.17268 1.8527,-1.71889 4.1961,-3.31505 1.3156,-0.89468 2.8847,-1.69091 5.006,-2.43511 3.5081,-1.22664 7.8109,-1.88264 13.0441,-1.47599 4.2443,0.38098 8.9869,1.56676 12.9877,4.14071 3.6299,2.28228 6.8309,5.95971 8.5143,10.39302 1.2308,3.17955 2.0536,6.63358 2.3797,10.22338 0.3189,3.39615 0.1773,6.95901 -0.2884,10.65203 -0.048,0.38817 -0.101,0.77742 -0.1561,1.16723 -1.0951,7.68172 -3.6641,15.65443 -5.9684,22.95085 -3.4554,10.80277 -6.1667,19.15117 -8.1468,28.38545 -2.603,12.11187 -2.7189,21.50147 -2.0269,27.04631 h -59.3465 c 0.692,-5.54484 0.5761,-14.93444 -2.0268,-27.04631 -1.9801,-9.23428 -4.6915,-17.58268 -8.1468,-28.38545 -2.3043,-7.29642 -4.8733,-15.26913 -5.9685,-22.95085 -0.056,-0.38981 -0.108,-0.77906 -0.156,-1.16723 -0.4657,-3.69302 -0.6072,-7.25588 -0.2885,-10.65203 0.3262,-3.58981 1.1489,-7.04383 2.3797,-10.22338 1.6834,-4.4333 4.8845,-8.11074 8.5144,-10.39302 4.0008,-2.57395 8.7434,-3.75973 12.9876,-4.14071 1.3083,-0.10164 2.5586,-0.13658 3.7528,-0.1131 z m -47.1379,15.53356 c 3.1211,0.0614 5.8024,0.58283 8.0948,1.38438 0.3375,0.11841 0.643,0.24025 0.95,0.36193 -0.5333,2.07397 -0.9448,4.20381 -1.1909,6.38805 -0.4906,4.44085 -0.3907,8.91991 0.1809,13.3552 0.06,0.46003 0.1251,0.91907 0.1934,1.3776 1.3576,9.11358 4.2497,17.60905 6.9513,24.91884 3.7327,10.21531 7.3655,19.23111 9.9927,27.11757 3.1062,9.33747 4.723,16.14695 6.0521,21.81982 0.2464,1.05164 0.4635,1.94428 0.6786,2.81513 H 1011.45 c 0.5118,-4.90369 0.3348,-12.76729 -1.8311,-22.84567 -1.7252,-8.04548 -4.0879,-15.31904 -7.0984,-24.7311 -2.0076,-6.35708 -4.24628,-13.3038 -5.2005,-19.9966 -0.0484,-0.33961 -0.094,-0.67747 -0.13573,-1.01565 -0.40571,-3.2176 -0.52882,-6.3223 -0.25109,-9.28124 0.28416,-3.12765 1.00083,-6.13663 2.07318,-8.90685 1.46674,-3.86258 4.25584,-7.06768 7.41844,-9.05616 3.4857,-2.24257 7.6182,-3.27493 11.316,-3.60685 1.1399,-0.0885 2.2294,-0.11886 3.2698,-0.0984 z m 131.5274,0 c 1.0404,-0.0205 2.1287,0.009 3.2687,0.0984 3.6978,0.33192 7.8303,1.36428 11.3159,3.60685 3.1626,1.98848 5.9518,5.19358 7.4185,9.05616 1.0723,2.77022 1.789,5.7792 2.0731,8.90685 0.2778,2.95894 0.1547,6.06364 -0.251,9.28124 -0.042,0.33818 -0.087,0.67604 -0.1358,1.01565 -0.9542,6.6928 -3.1929,13.63952 -5.2004,19.9966 -3.0105,9.41206 -5.3732,16.68562 -7.0984,24.73111 -2.166,10.07841 -2.3418,17.94198 -1.8299,22.84566 h -41.4647 c 0.215,-0.87085 0.4321,-1.76349 0.6786,-2.81513 1.3292,-5.67287 2.9459,-12.48235 6.0521,-21.81982 2.6271,-7.88646 6.26,-16.90227 9.9927,-27.11757 2.7015,-7.3098 5.5937,-15.80526 6.9513,-24.91884 0.069,-0.45853 0.1331,-0.91757 0.1933,-1.3776 0.5717,-4.43529 0.6716,-8.91434 0.181,-13.3552 -0.2462,-2.18424 -0.6576,-4.31408 -1.191,-6.38805 0.307,-0.12168 0.6125,-0.24352 0.9501,-0.36193 2.2923,-0.80155 4.9748,-1.32301 8.0959,-1.38438 z m -147.8402,113.27374 c -1.5534,0 -2.8039,1.2505 -2.8039,2.80382 v 1.25432 c 0,1.55332 1.2505,2.80382 2.8039,2.80382 h 164.1519 c 1.5533,0 2.8038,-1.2505 2.8038,-2.80382 v -1.25432 c 0,-1.55332 -1.2505,-2.80382 -2.8038,-2.80382 z" />
  </g>
</svg>
