<?xml version="1.0" encoding="UTF-8" standalone="no"?>
<!-- Created with Inkscape (http://www.inkscape.org/) -->

<svg
   width="234.03314"
   height="234.0332"
   viewBox="0 0 234.03314 234.0332"
   version="1.1"
   id="svg5"
   inkscape:version="1.1.2 (0a00cf5339, 2022-02-04)"
   sodipodi:docname="page_layout.svg"
   xmlns:inkscape="http://www.inkscape.org/namespaces/inkscape"
   xmlns:sodipodi="http://sodipodi.sourceforge.net/DTD/sodipodi-0.dtd"
   xmlns="http://www.w3.org/2000/svg"
   xmlns:svg="http://www.w3.org/2000/svg">
  <sodipodi:namedview
     id="namedview7"
     pagecolor="#505050"
     bordercolor="#eeeeee"
     borderopacity="1"
     inkscape:pageshadow="0"
     inkscape:pageopacity="0"
     inkscape:pagecheckerboard="0"
     inkscape:document-units="px"
     showgrid="true"
     inkscape:snap-bbox="true"
     inkscape:snap-page="true"
     inkscape:snap-global="true"
     inkscape:bbox-nodes="true"
     inkscape:bbox-paths="true"
     showguides="false"
     inkscape:guide-bbox="true"
     inkscape:zoom="0.5"
     inkscape:cx="658"
     inkscape:cy="1073"
     inkscape:window-width="1846"
     inkscape:window-height="1016"
     inkscape:window-x="1754"
     inkscape:window-y="27"
     inkscape:window-maximized="1"
     inkscape:current-layer="layer1"
     inkscape:snap-bbox-midpoints="true"
     inkscape:snap-intersection-paths="true"
     inkscape:snap-midpoints="false"
     inkscape:snap-bbox-edge-midpoints="false"
     inkscape:snap-to-guides="true"
     inkscape:snap-grids="true"
     inkscape:snap-others="true"
     inkscape:snap-object-midpoints="true"
     inkscape:snap-smooth-nodes="true"
     inkscape:object-paths="true"
     inkscape:lockguides="false"
     inkscape:showpageshadow="0"
     inkscape:deskcolor="#505050"
     showborder="false">
    <inkscape:grid
       type="axonomgrid"
       id="grid211443"
       color="#ffffff"
       opacity="0.1254902"
       empcolor="#ffffff"
       empopacity="0.25098039"
       enabled="false" />
  </sodipodi:namedview>
  <defs
     id="defs2">
    <clipPath
       clipPathUnits="userSpaceOnUse"
       id="clipPath240963">
      <rect
         style="fill:none;stroke:#90603d;stroke-width:5.00001;stroke-opacity:1"
         id="rect240965"
         width="289.62833"
         height="289.62833"
         x="2161.606"
         y="718.53815"
         ry="28.730558" />
    </clipPath>
  </defs>
  <g
     inkscape:label="Layer 1"
     inkscape:groupmode="layer"
     id="layer1"
     transform="translate(-661.98907,-964.328)">
    <g
       id="g1302">
      <g
         id="g241321"
         inkscape:export-filename="/home/abdulrhman/Projects/playwithfriends.svg"
         inkscape:export-xdpi="96"
         inkscape:export-ydpi="96">
        <g
           id="g240840"
           transform="matrix(0.79078306,0,0,0.79078306,-1044.8723,398.62021)"
           style="stroke-width:1.00367"
           clip-path="url(#clipPath240963)">
          <rect
             style="fill:#ffe4bf;fill-opacity:1;stroke-width:5.01834"
             id="rect240712"
             width="36.993843"
             height="36.993843"
             x="2158.4446"
             y="715.37695"
             ry="0" />
          <rect
             style="fill:#6a3d00;fill-opacity:1;stroke-width:5.01834"
             id="rect240714"
             width="36.993843"
             height="36.993843"
             x="2158.4446"
             y="752.37079"
             ry="0" />
          <rect
             style="fill:#ffe4bf;fill-opacity:1;stroke-width:5.01834"
             id="rect240716"
             width="36.993843"
             height="36.993843"
             x="2158.4446"
             y="789.36462"
             ry="0" />
          <rect
             style="fill:#6a3d00;fill-opacity:1;stroke-width:5.01834"
             id="rect240718"
             width="36.993843"
             height="36.993843"
             x="2158.4446"
             y="826.35846"
             ry="0" />
          <rect
             style="fill:#ffe4bf;fill-opacity:1;stroke-width:5.01834"
             id="rect240720"
             width="36.993843"
             height="36.993843"
             x="-2232.4324"
             y="-863.35229"
             ry="0"
             transform="scale(-1)" />
          <rect
             style="fill:#6a3d00;fill-opacity:1;stroke-width:5.01834"
             id="rect240722"
             width="36.993843"
             height="36.993843"
             x="-2232.4324"
             y="-826.35846"
             ry="0"
             transform="scale(-1)" />
          <rect
             style="fill:#ffe4bf;fill-opacity:1;stroke-width:5.01834"
             id="rect240724"
             width="36.993843"
             height="36.993843"
             x="-2232.4324"
             y="-789.36462"
             ry="0"
             transform="scale(-1)" />
          <rect
             style="fill:#6a3d00;fill-opacity:1;stroke-width:5.01834"
             id="rect240726"
             width="36.993843"
             height="36.993843"
             x="-2232.4324"
             y="-752.37079"
             ry="0"
             transform="scale(-1)" />
          <rect
             style="fill:#ffe4bf;fill-opacity:1;stroke-width:5.01834"
             id="rect240728"
             width="36.993843"
             height="36.993843"
             x="2158.4446"
             y="863.35229"
             ry="0" />
          <rect
             style="fill:#6a3d00;fill-opacity:1;stroke-width:5.01834"
             id="rect240730"
             width="36.993843"
             height="36.993843"
             x="2158.4446"
             y="900.34613"
             ry="0" />
          <rect
             style="fill:#ffe4bf;fill-opacity:1;stroke-width:5.01834"
             id="rect240732"
             width="36.993843"
             height="36.993843"
             x="2158.4446"
             y="937.33997"
             ry="0" />
          <rect
             style="fill:#6a3d00;fill-opacity:1;stroke-width:5.01834"
             id="rect240734"
             width="36.993843"
             height="36.993843"
             x="2158.4446"
             y="974.3338"
             ry="0" />
          <rect
             style="fill:#ffe4bf;fill-opacity:1;stroke-width:5.01834"
             id="rect240736"
             width="36.993843"
             height="36.993843"
             x="-2232.4324"
             y="-1011.3276"
             ry="0"
             transform="scale(-1)" />
          <rect
             style="fill:#6a3d00;fill-opacity:1;stroke-width:5.01834"
             id="rect240738"
             width="36.993843"
             height="36.993843"
             x="-2232.4324"
             y="-974.3338"
             ry="0"
             transform="scale(-1)" />
          <rect
             style="fill:#ffe4bf;fill-opacity:1;stroke-width:5.01834"
             id="rect240740"
             width="36.993843"
             height="36.993843"
             x="-2232.4324"
             y="-937.33997"
             ry="0"
             transform="scale(-1)" />
          <rect
             style="fill:#6a3d00;fill-opacity:1;stroke-width:5.01834"
             id="rect240742"
             width="36.993843"
             height="36.993843"
             x="-2232.4324"
             y="-900.34613"
             ry="0"
             transform="scale(-1)" />
          <rect
             style="fill:#ffe4bf;fill-opacity:1;stroke-width:5.01834"
             id="rect240744"
             width="36.993843"
             height="36.993843"
             x="2232.4324"
             y="715.37695"
             ry="0" />
          <rect
             style="fill:#6a3d00;fill-opacity:1;stroke-width:5.01834"
             id="rect240746"
             width="36.993843"
             height="36.993843"
             x="2232.4324"
             y="752.37079"
             ry="0" />
          <rect
             style="fill:#ffe4bf;fill-opacity:1;stroke-width:5.01834"
             id="rect240748"
             width="36.993843"
             height="36.993843"
             x="2232.4324"
             y="789.36462"
             ry="0" />
          <rect
             style="fill:#6a3d00;fill-opacity:1;stroke-width:5.01834"
             id="rect240750"
             width="36.993843"
             height="36.993843"
             x="2232.4324"
             y="826.35846"
             ry="0" />
          <rect
             style="fill:#ffe4bf;fill-opacity:1;stroke-width:5.01834"
             id="rect240752"
             width="36.993843"
             height="36.993843"
             x="-2306.4202"
             y="-863.35229"
             ry="0"
             transform="scale(-1)" />
          <rect
             style="fill:#6a3d00;fill-opacity:1;stroke-width:5.01834"
             id="rect240754"
             width="36.993843"
             height="36.993843"
             x="-2306.4202"
             y="-826.35846"
             ry="0"
             transform="scale(-1)" />
          <rect
             style="fill:#ffe4bf;fill-opacity:1;stroke-width:5.01834"
             id="rect240756"
             width="36.993843"
             height="36.993843"
             x="-2306.4202"
             y="-789.36462"
             ry="0"
             transform="scale(-1)" />
          <rect
             style="fill:#6a3d00;fill-opacity:1;stroke-width:5.01834"
             id="rect240758"
             width="36.993843"
             height="36.993843"
             x="-2306.4202"
             y="-752.37079"
             ry="0"
             transform="scale(-1)" />
          <rect
             style="fill:#ffe4bf;fill-opacity:1;stroke-width:5.01834"
             id="rect240760"
             width="36.993843"
             height="36.993843"
             x="2232.4324"
             y="863.35229"
             ry="0" />
          <rect
             style="fill:#6a3d00;fill-opacity:1;stroke-width:5.01834"
             id="rect240762"
             width="36.993843"
             height="36.993843"
             x="2232.4324"
             y="900.34613"
             ry="0" />
          <rect
             style="fill:#ffe4bf;fill-opacity:1;stroke-width:5.01834"
             id="rect240764"
             width="36.993843"
             height="36.993843"
             x="2232.4324"
             y="937.33997"
             ry="0" />
          <rect
             style="fill:#6a3d00;fill-opacity:1;stroke-width:5.01834"
             id="rect240766"
             width="36.993843"
             height="36.993843"
             x="2232.4324"
             y="974.3338"
             ry="0" />
          <rect
             style="fill:#ffe4bf;fill-opacity:1;stroke-width:5.01834"
             id="rect240768"
             width="36.993843"
             height="36.993843"
             x="-2306.4202"
             y="-1011.3276"
             ry="0"
             transform="scale(-1)" />
          <rect
             style="fill:#6a3d00;fill-opacity:1;stroke-width:5.01834"
             id="rect240770"
             width="36.993843"
             height="36.993843"
             x="-2306.4202"
             y="-974.3338"
             ry="0"
             transform="scale(-1)" />
          <rect
             style="fill:#ffe4bf;fill-opacity:1;stroke-width:5.01834"
             id="rect240772"
             width="36.993843"
             height="36.993843"
             x="-2306.4202"
             y="-937.33997"
             ry="0"
             transform="scale(-1)" />
          <rect
             style="fill:#6a3d00;fill-opacity:1;stroke-width:5.01834"
             id="rect240774"
             width="36.993843"
             height="36.993843"
             x="-2306.4202"
             y="-900.34613"
             ry="0"
             transform="scale(-1)" />
          <rect
             style="fill:#ffe4bf;fill-opacity:1;stroke-width:5.01834"
             id="rect240776"
             width="36.993843"
             height="36.993843"
             x="2306.4202"
             y="715.37695"
             ry="0" />
          <rect
             style="fill:#6a3d00;fill-opacity:1;stroke-width:5.01834"
             id="rect240778"
             width="36.993843"
             height="36.993843"
             x="2306.4202"
             y="752.37079"
             ry="0" />
          <rect
             style="fill:#ffe4bf;fill-opacity:1;stroke-width:5.01834"
             id="rect240780"
             width="36.993843"
             height="36.993843"
             x="2306.4202"
             y="789.36462"
             ry="0" />
          <rect
             style="fill:#6a3d00;fill-opacity:1;stroke-width:5.01834"
             id="rect240782"
             width="36.993843"
             height="36.993843"
             x="2306.4202"
             y="826.35846"
             ry="0" />
          <rect
             style="fill:#ffe4bf;fill-opacity:1;stroke-width:5.01834"
             id="rect240784"
             width="36.993843"
             height="36.993843"
             x="-2380.408"
             y="-863.35229"
             ry="0"
             transform="scale(-1)" />
          <rect
             style="fill:#6a3d00;fill-opacity:1;stroke-width:5.01834"
             id="rect240786"
             width="36.993843"
             height="36.993843"
             x="-2380.408"
             y="-826.35846"
             ry="0"
             transform="scale(-1)" />
          <rect
             style="fill:#ffe4bf;fill-opacity:1;stroke-width:5.01834"
             id="rect240788"
             width="36.993843"
             height="36.993843"
             x="-2380.408"
             y="-789.36462"
             ry="0"
             transform="scale(-1)" />
          <rect
             style="fill:#6a3d00;fill-opacity:1;stroke-width:5.01834"
             id="rect240790"
             width="36.993843"
             height="36.993843"
             x="-2380.408"
             y="-752.37079"
             ry="0"
             transform="scale(-1)" />
          <rect
             style="fill:#ffe4bf;fill-opacity:1;stroke-width:5.01834"
             id="rect240792"
             width="36.993843"
             height="36.993843"
             x="2306.4202"
             y="863.35229"
             ry="0" />
          <rect
             style="fill:#6a3d00;fill-opacity:1;stroke-width:5.01834"
             id="rect240794"
             width="36.993843"
             height="36.993843"
             x="2306.4202"
             y="900.34613"
             ry="0" />
          <rect
             style="fill:#ffe4bf;fill-opacity:1;stroke-width:5.01834"
             id="rect240796"
             width="36.993843"
             height="36.993843"
             x="2306.4202"
             y="937.33997"
             ry="0" />
          <rect
             style="fill:#6a3d00;fill-opacity:1;stroke-width:5.01834"
             id="rect240798"
             width="36.993843"
             height="36.993843"
             x="2306.4202"
             y="974.3338"
             ry="0" />
          <rect
             style="fill:#ffe4bf;fill-opacity:1;stroke-width:5.01834"
             id="rect240800"
             width="36.993843"
             height="36.993843"
             x="-2380.408"
             y="-1011.3276"
             ry="0"
             transform="scale(-1)" />
          <rect
             style="fill:#6a3d00;fill-opacity:1;stroke-width:5.01834"
             id="rect240802"
             width="36.993843"
             height="36.993843"
             x="-2380.408"
             y="-974.3338"
             ry="0"
             transform="scale(-1)" />
          <rect
             style="fill:#ffe4bf;fill-opacity:1;stroke-width:5.01834"
             id="rect240804"
             width="36.993843"
             height="36.993843"
             x="-2380.408"
             y="-937.33997"
             ry="0"
             transform="scale(-1)" />
          <rect
             style="fill:#6a3d00;fill-opacity:1;stroke-width:5.01834"
             id="rect240806"
             width="36.993843"
             height="36.993843"
             x="-2380.408"
             y="-900.34613"
             ry="0"
             transform="scale(-1)" />
          <rect
             style="fill:#ffe4bf;fill-opacity:1;stroke-width:5.01834"
             id="rect240808"
             width="36.993843"
             height="36.993843"
             x="2380.408"
             y="715.37695"
             ry="0" />
          <rect
             style="fill:#6a3d00;fill-opacity:1;stroke-width:5.01834"
             id="rect240810"
             width="36.993843"
             height="36.993843"
             x="2380.408"
             y="752.37079"
             ry="0" />
          <rect
             style="fill:#ffe4bf;fill-opacity:1;stroke-width:5.01834"
             id="rect240812"
             width="36.993843"
             height="36.993843"
             x="2380.408"
             y="789.36462"
             ry="0" />
          <rect
             style="fill:#6a3d00;fill-opacity:1;stroke-width:5.01834"
             id="rect240814"
             width="36.993843"
             height="36.993843"
             x="2380.408"
             y="826.35846"
             ry="0" />
          <rect
             style="fill:#ffe4bf;fill-opacity:1;stroke-width:5.01834"
             id="rect240816"
             width="36.993843"
             height="36.993843"
             x="-2454.3958"
             y="-863.35229"
             ry="0"
             transform="scale(-1)" />
          <rect
             style="fill:#6a3d00;fill-opacity:1;stroke-width:5.01834"
             id="rect240818"
             width="36.993843"
             height="36.993843"
             x="-2454.3958"
             y="-826.35846"
             ry="0"
             transform="scale(-1)" />
          <rect
             style="fill:#ffe4bf;fill-opacity:1;stroke-width:5.01834"
             id="rect240820"
             width="36.993843"
             height="36.993843"
             x="-2454.3958"
             y="-789.36462"
             ry="0"
             transform="scale(-1)" />
          <rect
             style="fill:#6a3d00;fill-opacity:1;stroke-width:5.01834"
             id="rect240822"
             width="36.993843"
             height="36.993843"
             x="-2454.3958"
             y="-752.37079"
             ry="0"
             transform="scale(-1)" />
          <rect
             style="fill:#ffe4bf;fill-opacity:1;stroke-width:5.01834"
             id="rect240824"
             width="36.993843"
             height="36.993843"
             x="2380.408"
             y="863.35229"
             ry="0" />
          <rect
             style="fill:#6a3d00;fill-opacity:1;stroke-width:5.01834"
             id="rect240826"
             width="36.993843"
             height="36.993843"
             x="2380.408"
             y="900.34613"
             ry="0" />
          <rect
             style="fill:#ffe4bf;fill-opacity:1;stroke-width:5.01834"
             id="rect240828"
             width="36.993843"
             height="36.993843"
             x="2380.408"
             y="937.33997"
             ry="0" />
          <rect
             style="fill:#6a3d00;fill-opacity:1;stroke-width:5.01834"
             id="rect240830"
             width="36.993843"
             height="36.993843"
             x="2380.408"
             y="974.3338"
             ry="0" />
          <rect
             style="fill:#ffe4bf;fill-opacity:1;stroke-width:5.01834"
             id="rect240832"
             width="36.993843"
             height="36.993843"
             x="-2454.3958"
             y="-1011.3276"
             ry="0"
             transform="scale(-1)" />
          <rect
             style="fill:#6a3d00;fill-opacity:1;stroke-width:5.01834"
             id="rect240834"
             width="36.993843"
             height="36.993843"
             x="-2454.3958"
             y="-974.3338"
             ry="0"
             transform="scale(-1)" />
          <rect
             style="fill:#ffe4bf;fill-opacity:1;stroke-width:5.01834"
             id="rect240836"
             width="36.993843"
             height="36.993843"
             x="-2454.3958"
             y="-937.33997"
             ry="0"
             transform="scale(-1)" />
          <rect
             style="fill:#6a3d00;fill-opacity:1;stroke-width:5.01834"
             id="rect240838"
             width="36.993843"
             height="36.993843"
             x="-2454.3958"
             y="-900.34613"
             ry="0"
             transform="scale(-1)" />
        </g>
        <g
           id="g240985"
           transform="translate(-1578.3124,144.68698)">
          <g
             id="g240874"
             transform="matrix(0.91559196,0,0,0.91559196,23.92203,95.2612)"
             style="stroke-width:1.09218">
            <g
               id="g240850"
               transform="matrix(0.9787135,0,0,0.9787135,337.69989,31.810723)"
               style="stroke-width:1.11595">
              <path
                 style="fill:#ff0000;fill-opacity:1;stroke-width:5.57973"
                 id="path240842"
                 d="m 2253.4248,813.77453 c -4.6663,12.32963 -4.6757,25.7784 -5.3037,38.77227 -0.2461,3.49657 -0.5822,6.98796 -0.7382,10.48971 -0.4787,10.74544 -0.4534,17.12629 0.3368,28.04915 1.1399,15.75502 3.673,31.36639 6.0546,46.96572 1.9356,12.31357 4.3302,24.54514 6.1987,36.86944 0.8245,5.43895 1.5292,10.7525 1.6669,16.24388 0.8616,-2.02328 -0.8537,1.59612 3.759,-1.46883 0.3446,-0.22899 -0.2168,-0.80005 -0.364,-1.18672 -0.2773,-0.72801 -1.0715,-2.58399 -1.5734,-3.28609 -0.2993,-0.41884 -0.7046,-0.75082 -1.0569,-1.12624 -1.7816,0.37289 -3.7906,0.17126 -5.3449,1.11866 -0.7983,0.48659 -0.621,1.76538 -0.8665,2.66747 -0.2522,0.92694 -0.4055,1.87808 -0.6248,2.81337 -2.2021,9.39468 0.4912,-2.4964 -1.6653,7.10956 -0.09,0.50532 7.056,1.78219 7.1462,1.27687 v 0 c 0.6856,-3.36975 1.3816,-6.78748 1.3669,-10.24871 0,-0.36867 0.1717,-0.98172 -0.1804,-1.09119 -1.4245,-0.44302 -2.9744,-0.23494 -4.4616,-0.3524 -0.542,-0.39958 -0.2741,-0.23465 0.4187,1.48509 0.3,0.74492 0.5986,1.49487 0.987,2.19778 1.7093,3.09334 2.3896,4.25853 7.1945,3.46119 1.0192,-0.16914 1.4371,-1.48473 2.1557,-2.2271 0.446,-1.2289 1.0672,-2.40773 1.3381,-3.6867 0.9741,-4.59955 0.9272,-10.11194 0.7661,-14.69099 -0.4417,-12.55823 -2.1784,-25.03343 -3.7597,-37.48174 -0.7109,-5.10225 -1.4071,-10.20656 -2.1327,-15.30674 -3.2226,-22.65174 -6.7398,-45.35442 -7.1031,-68.28102 0.082,-2.73176 0.1325,-5.46463 0.2455,-8.19527 0.1084,-2.61935 0.2791,-5.23574 0.4187,-7.85361 0.1203,-2.60222 0.2534,-5.20388 0.361,-7.80666 0.9348,-22.60573 -0.2366,5.54208 0.3043,-11.57784 0.025,-0.77905 0.1088,-1.55508 0.1631,-2.33263 0.093,-0.40352 -5.6133,-1.72321 -5.7066,-1.31968 z" />
              <g
                 id="g240848"
                 transform="matrix(0.49023241,0,0,0.49023241,1250.9003,470.25392)"
                 style="stroke-width:1.11595">
                <path
                   style="fill:#000000;fill-opacity:1;stroke-width:5.57973"
                   id="path240844"
                   d="m 1988.0637,928.2868 c 0.4383,1.4604 0.9143,2.90999 1.3148,4.38121 1.7815,6.54505 8.4789,32.85994 9.586,35.47184 2.8892,6.81647 7.7711,12.60765 11.4234,19.04754 1.4933,2.63308 1.0037,7.73714 4.0023,8.15168 2.4935,0.34473 1.0934,-4.91443 1.6401,-7.37164 -8.4265,-3.86656 -3.3195,-14.35275 -7.7615,-19.92855 -1.0033,-1.25945 -1.0292,3.44187 -0.2069,4.82635 1.4784,2.48915 3.7792,6.76164 6.4969,5.76398 5.9971,-2.20147 10.6494,-7.71354 13.8596,-13.23672 5.4581,-9.39055 7.6963,-20.31398 11.5444,-30.47097 -0.4741,-32.33031 2.8856,-20.80075 -2.3938,-35.94774 -0.024,-0.38486 -5.467,-0.0417 -5.4428,0.34314 v 0 c -7.6367,12.38378 -2.1542,2.51339 -9.01,32.65214 -0.8772,9.83629 -1.5584,19.69205 -2.6317,29.50888 -0.4724,4.32072 1.2301,9.97992 -2.0033,12.8846 -2.1476,1.92931 -4.7509,-3.42468 -7.4805,-4.36486 -7.444,-2.56402 -13.059,-2.54895 -9.004,8.93076 1.7168,4.86033 5.8377,8.49714 8.7566,12.74571 3.2562,0.90598 7.0735,4.75756 9.7687,2.71795 3.0001,-2.27041 2.6604,-7.6389 1.4337,-11.19565 -2.4732,-7.17099 -8.4653,-12.62668 -11.9702,-19.3539 -3.5786,-6.86859 -5.7111,-14.42301 -9.224,-21.32538 -1.8626,-3.65947 -7.008,-10.77696 -10.1254,-15.15514 -0.065,-0.1819 -2.6378,0.74287 -2.5724,0.92477 z" />
                <path
                   style="fill:#000000;fill-opacity:1;stroke-width:5.57973"
                   id="path240846"
                   d="m 2085.2647,916.324 c -5.1546,1.14593 -10.4968,1.6458 -15.4638,3.43778 -11.078,3.99662 -23.0822,10.02196 -29.4687,20.68822 -1.1858,1.98029 -1.4576,5.94646 0.647,6.89409 5.2703,2.37298 11.663,2.46771 17.299,1.18624 5.744,-1.30602 10.2823,-5.75091 15.4234,-8.62637 4.679,-0.28968 9.5079,-2.0792 14.037,-0.86903 2.4347,0.65056 3.4449,3.72733 4.7434,5.8872 2.254,3.74936 2.9851,8.44461 5.8566,11.74499 3.7838,4.34885 8.7693,7.54388 13.6267,10.64793 2.5333,1.61882 5.5884,4.577 8.3541,3.39854 2.3787,-1.01358 1.014,-5.07092 1.5211,-7.60637 -4.3525,-1.94495 -8.2916,-5.94844 -13.0575,-5.83484 -20.6404,0.49196 -33.1866,10.77364 -48.481,22.87363 -15.433,12.20966 -17.5734,8.02803 -12.5331,14.83183 -0.2235,-0.12695 -2.0188,3.03422 -1.7953,3.16116 v 0 c 2.9293,0.94542 5.9644,4.0623 8.7877,2.8363 5.7958,-2.5168 9.1274,-8.76111 14.0316,-12.74532 3.337,-2.71103 30.0185,-23.26405 36.9081,-25.16389 3.8155,-1.05212 7.7768,1.47679 11.6653,2.21518 2.2458,0.16803 5.6659,2.4849 6.7376,0.50409 0.996,-1.84074 -3.3329,-2.54428 -4.8587,-3.97681 -1.6907,-1.58736 -20.6023,-20.60327 -22.2691,-21.89742 -3.4598,-2.68636 -7.0772,-5.7253 -11.3725,-6.58407 -4.964,-0.99247 -10.0882,0.85659 -15.1323,1.28488 -5.3299,1.98593 -10.8858,3.44716 -15.9895,5.95779 -3.3103,1.62844 -5.6518,4.94049 -9.0558,6.36262 -0.7368,0.30781 -1.2554,-1.76222 -0.6661,-2.30108 6.6273,-6.06036 21.8298,-14.18525 29.3583,-18.08627 4.1723,-2.16197 8.4851,-4.04148 12.7276,-6.06222 0.2941,-0.1118 -1.287,-4.27058 -1.5811,-4.15878 z" />
              </g>
            </g>
            <g
               id="g240862"
               transform="matrix(0.9787135,0,0,0.9787135,407.12786,242.94877)"
               style="stroke-width:1.11595">
              <circle
                 style="fill:#ffe9cc;fill-opacity:1;stroke:#000000;stroke-width:1.67392;stroke-miterlimit:4;stroke-dasharray:none;stroke-opacity:1"
                 id="circle240852"
                 cx="2125.2354"
                 cy="650.80994"
                 r="10.867737" />
              <path
                 id="path240854"
                 style="fill:#ffe9cc;fill-opacity:1;stroke:#000000;stroke-width:1.67392;stroke-miterlimit:4;stroke-dasharray:none;stroke-opacity:1"
                 d="m 2118.136,671.10095 h 14.1988 l 11.0562,60.26934 h -36.3112 z"
                 sodipodi:nodetypes="ccccc" />
              <rect
                 style="fill:#ffe9cc;fill-opacity:1;stroke:#000000;stroke-width:1.67392;stroke-miterlimit:4;stroke-dasharray:none;stroke-opacity:1"
                 id="rect240856"
                 width="24.385605"
                 height="4.0925894"
                 x="2113.0425"
                 y="664.34302" />
              <rect
                 style="fill:#ffe9cc;fill-opacity:1;stroke:#000000;stroke-width:1.67392;stroke-miterlimit:4;stroke-dasharray:none;stroke-opacity:1"
                 id="rect240858"
                 width="52.20565"
                 height="6.3138366"
                 x="2099.1326"
                 y="734.03564" />
              <rect
                 style="fill:#ffe9cc;fill-opacity:1;stroke:#000000;stroke-width:1.67392;stroke-miterlimit:4;stroke-dasharray:none;stroke-opacity:1"
                 id="rect240860"
                 width="65.22049"
                 height="7.3374062"
                 x="2092.625"
                 y="743.01483" />
            </g>
            <circle
               style="fill:#855109;fill-opacity:1;stroke:#000000;stroke-width:1.63829;stroke-miterlimit:4;stroke-dasharray:none;stroke-opacity:1"
               id="circle240864"
               cx="2609.8975"
               cy="879.90521"
               r="10.636401" />
            <path
               id="path240866"
               style="fill:#855109;fill-opacity:1;stroke:#000000;stroke-width:1.63829;stroke-miterlimit:4;stroke-dasharray:none;stroke-opacity:1"
               d="m 2602.9495,899.76432 h 13.8966 l 10.8208,58.98642 h -35.5382 z"
               sodipodi:nodetypes="ccccc" />
            <rect
               style="fill:#855109;fill-opacity:1;stroke:#000000;stroke-width:1.63829;stroke-miterlimit:4;stroke-dasharray:none;stroke-opacity:1"
               id="rect240868"
               width="23.86652"
               height="4.0054727"
               x="2597.9641"
               y="893.15021" />
            <rect
               style="fill:#855109;fill-opacity:1;stroke:#000000;stroke-width:1.63829;stroke-miterlimit:4;stroke-dasharray:none;stroke-opacity:1"
               id="rect240870"
               width="51.094376"
               height="6.1794372"
               x="2584.3503"
               y="961.35931" />
            <rect
               style="fill:#855109;fill-opacity:1;stroke:#000000;stroke-width:1.63829;stroke-miterlimit:4;stroke-dasharray:none;stroke-opacity:1"
               id="rect240872"
               width="63.832172"
               height="7.1812186"
               x="2577.9814"
               y="970.1474" />
          </g>
          <rect
             style="fill:none;stroke:#000000;stroke-width:10;stroke-miterlimit:4;stroke-dasharray:none;stroke-opacity:1"
             id="rect240876"
             width="191.71365"
             height="191.71365"
             x="2261.4612"
             y="840.80078"
             ry="19.017618" />
        </g>
      </g>
      <rect
         style="fill:none;stroke:#90603d;stroke-width:5;stroke-opacity:1"
         id="rect24496"
         width="229.03317"
         height="229.03317"
         x="664.48907"
         y="966.828"
         ry="22.719639" />
    </g>
  </g>
</svg>
