<?xml version="1.0" encoding="UTF-8" standalone="no"?>
<!-- Created with Inkscape (http://www.inkscape.org/) -->

<svg
   width="234.0332"
   height="234.0332"
   viewBox="0 0 234.0332 234.0332"
   version="1.1"
   id="svg5"
   inkscape:version="1.1.2 (0a00cf5339, 2022-02-04)"
   sodipodi:docname="page_layout.svg"
   xmlns:inkscape="http://www.inkscape.org/namespaces/inkscape"
   xmlns:sodipodi="http://sodipodi.sourceforge.net/DTD/sodipodi-0.dtd"
   xmlns="http://www.w3.org/2000/svg"
   xmlns:svg="http://www.w3.org/2000/svg">
  <sodipodi:namedview
     id="namedview7"
     pagecolor="#505050"
     bordercolor="#eeeeee"
     borderopacity="1"
     inkscape:pageshadow="0"
     inkscape:pageopacity="0"
     inkscape:pagecheckerboard="0"
     inkscape:document-units="px"
     showgrid="true"
     inkscape:snap-bbox="true"
     inkscape:snap-page="true"
     inkscape:snap-global="true"
     inkscape:bbox-nodes="true"
     inkscape:bbox-paths="true"
     showguides="false"
     inkscape:guide-bbox="true"
     inkscape:zoom="0.5"
     inkscape:cx="658"
     inkscape:cy="1073"
     inkscape:window-width="1846"
     inkscape:window-height="1016"
     inkscape:window-x="1754"
     inkscape:window-y="27"
     inkscape:window-maximized="1"
     inkscape:current-layer="layer1"
     inkscape:snap-bbox-midpoints="true"
     inkscape:snap-intersection-paths="true"
     inkscape:snap-midpoints="false"
     inkscape:snap-bbox-edge-midpoints="false"
     inkscape:snap-to-guides="true"
     inkscape:snap-grids="true"
     inkscape:snap-others="true"
     inkscape:snap-object-midpoints="true"
     inkscape:snap-smooth-nodes="true"
     inkscape:object-paths="true"
     inkscape:lockguides="false"
     inkscape:showpageshadow="0"
     inkscape:deskcolor="#505050">
    <inkscape:grid
       type="axonomgrid"
       id="grid211443"
       color="#ffffff"
       opacity="0.1254902"
       empcolor="#ffffff"
       empopacity="0.25098039"
       enabled="false" />
  </sodipodi:namedview>
  <defs
     id="defs2">
    <filter
       inkscape:collect="always"
       style="color-interpolation-filters:sRGB"
       id="filter206286"
       x="-0.36130333"
       y="-0.62565899"
       width="1.7226067"
       height="2.251318">
      <feGaussianBlur
         inkscape:collect="always"
         stdDeviation="5.4406263"
         id="feGaussianBlur206288" />
    </filter>
  </defs>
  <g
     inkscape:label="Layer 1"
     inkscape:groupmode="layer"
     id="layer1"
     transform="translate(-1023.978,-964.328)">
    <g
       id="g244653"
       inkscape:export-filename="/home/abdulrhman/Projects/tipsandtricks.svg"
       inkscape:export-xdpi="96"
       inkscape:export-ydpi="96">
      <rect
         style="fill:#ffe4bf;fill-opacity:1;stroke:#90603d;stroke-width:5;stroke-opacity:1"
         id="rect24498"
         width="229.03317"
         height="229.03317"
         x="1026.478"
         y="966.828"
         ry="22.719639" />
      <g
         id="g219475"
         transform="translate(-1378.8659,-384.93065)">
        <path
           style="opacity:0.227;fill:#000000;fill-opacity:1;stroke:none;stroke-width:0.999993px;stroke-linecap:butt;stroke-linejoin:miter;stroke-opacity:1"
           d="m 2544.498,1377.1875 -136.6542,78.8984 v 17.6914 l 136.6542,78.8965 87.379,-50.4472 v -74.5899 z"
           id="path213515" />
        <path
           style="fill:#ffe4bf;fill-opacity:1;stroke:none;stroke-width:0.999998px;stroke-linecap:butt;stroke-linejoin:miter;stroke-opacity:1"
           d="m 2407.8438,1436.418 v 19.666 l 17.0312,-9.832 z"
           id="path213159" />
        <path
           id="path213161"
           style="fill:#6a3d00;fill-opacity:1;stroke:none;stroke-width:0.999998px;stroke-linecap:butt;stroke-linejoin:miter;stroke-opacity:1"
           d="m 2424.875,1446.252 -17.0312,9.832 v 2.2695 l 17.0312,9.834 18.998,-10.9687 z" />
        <path
           style="fill:#ffe4bf;fill-opacity:1;stroke:none;stroke-width:0.999998px;stroke-linecap:butt;stroke-linejoin:miter;stroke-opacity:1"
           d="m 2443.8727,1457.2193 18.9969,10.9679 -18.9969,10.9679 -18.997,-10.9679 z"
           id="path213163" />
        <path
           style="fill:#6a3d00;fill-opacity:1;stroke:none;stroke-width:0.999998px;stroke-linecap:butt;stroke-linejoin:miter;stroke-opacity:1"
           d="m 2443.8727,1479.1551 18.9969,-10.9679 18.997,10.9679 -18.997,10.9679 z"
           id="path213165" />
        <path
           style="fill:#ffe4bf;fill-opacity:1;stroke:none;stroke-width:0.999998px;stroke-linecap:butt;stroke-linejoin:miter;stroke-opacity:1"
           d="m 2481.8667,1479.155 18.9969,10.968 -18.9969,10.9678 -18.997,-10.9678 z"
           id="path213167" />
        <path
           style="fill:#6a3d00;fill-opacity:1;stroke:none;stroke-width:0.999998px;stroke-linecap:butt;stroke-linejoin:miter;stroke-opacity:1"
           d="m 2481.8667,1501.0908 18.9969,-10.9678 18.997,10.9678 -18.997,10.968 z"
           id="path213169" />
        <path
           style="fill:#ffe4bf;fill-opacity:1;stroke:none;stroke-width:0.999998px;stroke-linecap:butt;stroke-linejoin:miter;stroke-opacity:1"
           d="m 2519.8606,1501.0908 18.997,10.968 -18.997,10.9679 -18.997,-10.9679 z"
           id="path213171" />
        <path
           style="fill:#6a3d00;fill-opacity:1;stroke:none;stroke-width:0.999998px;stroke-linecap:butt;stroke-linejoin:miter;stroke-opacity:1"
           d="m 2519.8606,1523.0267 18.997,-10.9679 18.9969,10.9679 -18.9969,10.9679 z"
           id="path213173" />
        <path
           style="fill:#ffe4bf;fill-opacity:1;stroke:none;stroke-width:0.999998px;stroke-linecap:butt;stroke-linejoin:miter;stroke-opacity:1"
           d="m 2519.8606,1544.9625 -18.9969,-10.9679 18.9969,-10.9679 18.997,10.9679 z"
           id="path213175" />
        <path
           style="fill:#6a3d00;fill-opacity:1;stroke:none;stroke-width:0.999998px;stroke-linecap:butt;stroke-linejoin:miter;stroke-opacity:1"
           d="m 2519.8606,1523.0267 -18.9969,10.9679 -18.997,-10.9679 18.997,-10.968 z"
           id="path213177" />
        <path
           style="fill:#ffe4bf;fill-opacity:1;stroke:none;stroke-width:0.999998px;stroke-linecap:butt;stroke-linejoin:miter;stroke-opacity:1"
           d="m 2481.8667,1523.0267 -18.9969,-10.968 18.9969,-10.9679 18.997,10.9679 z"
           id="path213179" />
        <path
           style="fill:#6a3d00;fill-opacity:1;stroke:none;stroke-width:0.999998px;stroke-linecap:butt;stroke-linejoin:miter;stroke-opacity:1"
           d="m 2481.8667,1501.0908 -18.9969,10.9679 -18.997,-10.9679 18.997,-10.9679 z"
           id="path213181" />
        <path
           style="fill:#ffe4bf;fill-opacity:1;stroke:none;stroke-width:0.999998px;stroke-linecap:butt;stroke-linejoin:miter;stroke-opacity:1"
           d="m 2443.8727,1501.0909 -18.997,-10.9679 18.997,-10.9679 18.997,10.9679 z"
           id="path213183" />
        <path
           id="path213185"
           style="fill:#6a3d00;fill-opacity:1;stroke:none;stroke-width:0.999998px;stroke-linecap:butt;stroke-linejoin:miter;stroke-opacity:1"
           d="m 2424.875,1468.1875 -17.0312,9.832 v 2.2696 l 17.0312,9.8339 18.998,-10.9687 z" />
        <path
           style="fill:#ffe4bf;fill-opacity:1;stroke:none;stroke-width:0.999998px;stroke-linecap:butt;stroke-linejoin:miter;stroke-opacity:1"
           d="m 2407.8438,1458.3535 v 19.666 l 17.0312,-9.832 z"
           id="path213187" />
        <path
           style="fill:#ffe4bf;fill-opacity:1;stroke:none;stroke-width:0.999998px;stroke-linecap:butt;stroke-linejoin:miter;stroke-opacity:1"
           d="m 2443.8727,1413.3476 18.9969,10.9679 -18.9969,10.9679 -18.997,-10.9679 z"
           id="path213191" />
        <path
           style="fill:#6a3d00;fill-opacity:1;stroke:none;stroke-width:0.999998px;stroke-linecap:butt;stroke-linejoin:miter;stroke-opacity:1"
           d="m 2443.8727,1435.2834 18.9969,-10.9679 18.997,10.9679 -18.997,10.968 z"
           id="path213193" />
        <path
           style="fill:#ffe4bf;fill-opacity:1;stroke:none;stroke-width:0.999998px;stroke-linecap:butt;stroke-linejoin:miter;stroke-opacity:1"
           d="m 2481.8666,1435.2834 18.9969,10.968 -18.9969,10.9679 -18.997,-10.9679 z"
           id="path213195" />
        <path
           style="fill:#6a3d00;fill-opacity:1;stroke:none;stroke-width:0.999998px;stroke-linecap:butt;stroke-linejoin:miter;stroke-opacity:1"
           d="m 2481.8666,1457.2193 18.9969,-10.9679 18.997,10.9679 -18.997,10.9679 z"
           id="path213197" />
        <path
           style="fill:#ffe4bf;fill-opacity:1;stroke:none;stroke-width:0.999998px;stroke-linecap:butt;stroke-linejoin:miter;stroke-opacity:1"
           d="m 2519.8606,1457.2192 18.997,10.9679 -18.997,10.9679 -18.997,-10.9679 z"
           id="path213199" />
        <path
           style="fill:#6a3d00;fill-opacity:1;stroke:none;stroke-width:0.999998px;stroke-linecap:butt;stroke-linejoin:miter;stroke-opacity:1"
           d="m 2519.8606,1479.155 18.997,-10.9679 18.9969,10.9679 -18.9969,10.968 z"
           id="path213201" />
        <path
           style="fill:#ffe4bf;fill-opacity:1;stroke:none;stroke-width:0.999998px;stroke-linecap:butt;stroke-linejoin:miter;stroke-opacity:1"
           d="m 2557.8545,1479.155 18.997,10.968 -18.997,10.9678 -18.9969,-10.9678 z"
           id="path213203" />
        <path
           style="fill:#6a3d00;fill-opacity:1;stroke:none;stroke-width:0.999998px;stroke-linecap:butt;stroke-linejoin:miter;stroke-opacity:1"
           d="m 2557.8545,1501.0908 18.997,-10.9678 18.997,10.9678 -18.997,10.968 z"
           id="path213205" />
        <path
           style="fill:#ffe4bf;fill-opacity:1;stroke:none;stroke-width:0.999998px;stroke-linecap:butt;stroke-linejoin:miter;stroke-opacity:1"
           d="m 2557.8545,1523.0267 -18.9969,-10.968 18.9969,-10.9679 18.997,10.9679 z"
           id="path213207" />
        <path
           style="fill:#6a3d00;fill-opacity:1;stroke:none;stroke-width:0.999998px;stroke-linecap:butt;stroke-linejoin:miter;stroke-opacity:1"
           d="m 2557.8545,1501.0908 -18.9969,10.9679 -18.997,-10.9679 18.997,-10.9679 z"
           id="path213209" />
        <path
           style="fill:#ffe4bf;fill-opacity:1;stroke:none;stroke-width:0.999998px;stroke-linecap:butt;stroke-linejoin:miter;stroke-opacity:1"
           d="m 2519.8606,1501.0908 -18.9969,-10.9679 18.9969,-10.9679 18.997,10.9679 z"
           id="path213211" />
        <path
           style="fill:#6a3d00;fill-opacity:1;stroke:none;stroke-width:0.999998px;stroke-linecap:butt;stroke-linejoin:miter;stroke-opacity:1"
           d="m 2519.8606,1479.155 -18.9969,10.9679 -18.997,-10.9679 18.997,-10.9679 z"
           id="path213213" />
        <path
           style="fill:#ffe4bf;fill-opacity:1;stroke:none;stroke-width:0.999998px;stroke-linecap:butt;stroke-linejoin:miter;stroke-opacity:1"
           d="m 2481.8666,1479.1551 -18.9969,-10.968 18.9969,-10.9678 18.997,10.9678 z"
           id="path213215" />
        <path
           style="fill:#6a3d00;fill-opacity:1;stroke:none;stroke-width:0.999998px;stroke-linecap:butt;stroke-linejoin:miter;stroke-opacity:1"
           d="m 2481.8666,1457.2193 -18.9969,10.9678 -18.997,-10.9678 18.997,-10.968 z"
           id="path213217" />
        <path
           style="fill:#ffe4bf;fill-opacity:1;stroke:none;stroke-width:0.999998px;stroke-linecap:butt;stroke-linejoin:miter;stroke-opacity:1"
           d="m 2443.8727,1457.2193 -18.997,-10.968 18.997,-10.9679 18.997,10.9679 z"
           id="path213219" />
        <path
           id="path213221"
           style="fill:#6a3d00;fill-opacity:1;stroke:none;stroke-width:0.999998px;stroke-linecap:butt;stroke-linejoin:miter;stroke-opacity:1"
           d="m 2424.875,1424.3164 -17.0312,9.832 v 2.2696 l 17.0312,9.834 18.998,-10.9688 z" />
        <path
           style="fill:#ffe4bf;fill-opacity:1;stroke:none;stroke-width:0.999998px;stroke-linecap:butt;stroke-linejoin:miter;stroke-opacity:1"
           d="m 2481.8666,1391.4118 18.9969,10.9679 -18.9969,10.9679 -18.997,-10.9679 z"
           id="path213223" />
        <path
           style="fill:#6a3d00;fill-opacity:1;stroke:none;stroke-width:0.999998px;stroke-linecap:butt;stroke-linejoin:miter;stroke-opacity:1"
           d="m 2481.8666,1413.3476 18.9969,-10.9679 18.997,10.9679 -18.997,10.9679 z"
           id="path213225" />
        <path
           style="fill:#ffe4bf;fill-opacity:1;stroke:none;stroke-width:0.999998px;stroke-linecap:butt;stroke-linejoin:miter;stroke-opacity:1"
           d="m 2519.8605,1413.3476 18.9969,10.9679 -18.9969,10.9679 -18.997,-10.9679 z"
           id="path213227" />
        <path
           style="fill:#6a3d00;fill-opacity:1;stroke:none;stroke-width:0.999998px;stroke-linecap:butt;stroke-linejoin:miter;stroke-opacity:1"
           d="m 2519.8605,1435.2834 18.9969,-10.9679 18.997,10.9679 -18.997,10.968 z"
           id="path213229" />
        <path
           style="fill:#ffe4bf;fill-opacity:1;stroke:none;stroke-width:0.999998px;stroke-linecap:butt;stroke-linejoin:miter;stroke-opacity:1"
           d="m 2557.8545,1435.2834 18.997,10.9679 -18.997,10.9679 -18.9969,-10.9679 z"
           id="path213231" />
        <path
           style="fill:#6a3d00;fill-opacity:1;stroke:none;stroke-width:0.999998px;stroke-linecap:butt;stroke-linejoin:miter;stroke-opacity:1"
           d="m 2557.8545,1457.2192 18.997,-10.9679 18.997,10.9679 -18.997,10.9679 z"
           id="path213233" />
        <path
           style="fill:#ffe4bf;fill-opacity:1;stroke:none;stroke-width:0.999998px;stroke-linecap:butt;stroke-linejoin:miter;stroke-opacity:1"
           d="m 2595.8485,1457.2192 18.9969,10.9679 -18.9969,10.9679 -18.997,-10.9679 z"
           id="path213235" />
        <path
           id="path213237"
           style="fill:#6a3d00;fill-opacity:1;stroke:none;stroke-width:0.999998px;stroke-linecap:butt;stroke-linejoin:miter;stroke-opacity:1"
           d="m 2614.8457,1468.1875 -18.998,10.9668 18.998,10.9687 17.0313,-9.8339 v -2.2696 z" />
        <path
           style="fill:#ffe4bf;fill-opacity:1;stroke:none;stroke-width:0.999998px;stroke-linecap:butt;stroke-linejoin:miter;stroke-opacity:1"
           d="m 2595.8485,1501.0908 -18.997,-10.9679 18.997,-10.9679 18.997,10.9679 z"
           id="path213239" />
        <path
           style="fill:#6a3d00;fill-opacity:1;stroke:none;stroke-width:0.999998px;stroke-linecap:butt;stroke-linejoin:miter;stroke-opacity:1"
           d="m 2595.8485,1479.155 -18.997,10.9679 -18.997,-10.9679 18.997,-10.9679 z"
           id="path213241" />
        <path
           style="fill:#ffe4bf;fill-opacity:1;stroke:none;stroke-width:0.999998px;stroke-linecap:butt;stroke-linejoin:miter;stroke-opacity:1"
           d="m 2557.8545,1479.155 -18.9969,-10.9679 18.9969,-10.9679 18.997,10.9679 z"
           id="path213243" />
        <path
           style="fill:#6a3d00;fill-opacity:1;stroke:none;stroke-width:0.999998px;stroke-linecap:butt;stroke-linejoin:miter;stroke-opacity:1"
           d="m 2557.8545,1457.2192 -18.9969,10.9679 -18.997,-10.9679 18.997,-10.9679 z"
           id="path213245" />
        <path
           style="fill:#ffe4bf;fill-opacity:1;stroke:none;stroke-width:0.999998px;stroke-linecap:butt;stroke-linejoin:miter;stroke-opacity:1"
           d="m 2519.8605,1457.2193 -18.9969,-10.968 18.9969,-10.9679 18.997,10.9679 z"
           id="path213247" />
        <path
           style="fill:#6a3d00;fill-opacity:1;stroke:none;stroke-width:0.999998px;stroke-linecap:butt;stroke-linejoin:miter;stroke-opacity:1"
           d="m 2519.8605,1435.2834 -18.9969,10.9679 -18.997,-10.9679 18.997,-10.9679 z"
           id="path213249" />
        <path
           style="fill:#ffe4bf;fill-opacity:1;stroke:none;stroke-width:0.999998px;stroke-linecap:butt;stroke-linejoin:miter;stroke-opacity:1"
           d="m 2481.8666,1435.2834 -18.9969,-10.9679 18.9969,-10.9679 18.997,10.9679 z"
           id="path213251" />
        <path
           style="fill:#6a3d00;fill-opacity:1;stroke:none;stroke-width:0.999998px;stroke-linecap:butt;stroke-linejoin:miter;stroke-opacity:1"
           d="m 2481.8666,1413.3476 -18.9969,10.9679 -18.997,-10.9679 18.997,-10.9679 z"
           id="path213253" />
        <path
           style="fill:#ffe4bf;fill-opacity:1;stroke:none;stroke-width:0.999998px;stroke-linecap:butt;stroke-linejoin:miter;stroke-opacity:1"
           d="m 2519.8605,1369.4759 18.9969,10.968 -18.9969,10.9679 -18.997,-10.9679 z"
           id="path213255" />
        <path
           style="fill:#6a3d00;fill-opacity:1;stroke:none;stroke-width:0.999998px;stroke-linecap:butt;stroke-linejoin:miter;stroke-opacity:1"
           d="m 2519.8605,1391.4118 18.9969,-10.9679 18.997,10.9679 -18.997,10.9679 z"
           id="path213257" />
        <path
           style="fill:#ffe4bf;fill-opacity:1;stroke:none;stroke-width:0.999998px;stroke-linecap:butt;stroke-linejoin:miter;stroke-opacity:1"
           d="m 2557.8544,1391.4118 18.997,10.9679 -18.997,10.9679 -18.997,-10.9679 z"
           id="path213259" />
        <path
           style="fill:#6a3d00;fill-opacity:1;stroke:none;stroke-width:0.999998px;stroke-linecap:butt;stroke-linejoin:miter;stroke-opacity:1"
           d="m 2557.8544,1413.3476 18.997,-10.9679 18.997,10.9679 -18.997,10.9679 z"
           id="path213261" />
        <path
           style="fill:#ffe4bf;fill-opacity:1;stroke:none;stroke-width:0.999998px;stroke-linecap:butt;stroke-linejoin:miter;stroke-opacity:1"
           d="m 2595.8485,1413.3475 18.9969,10.968 -18.9969,10.9679 -18.997,-10.9679 z"
           id="path213263" />
        <path
           id="path213265"
           style="fill:#6a3d00;fill-opacity:1;stroke:none;stroke-width:0.999998px;stroke-linecap:butt;stroke-linejoin:miter;stroke-opacity:1"
           d="m 2614.8457,1424.3164 -18.998,10.9668 18.998,10.9688 17.0313,-9.834 v -2.2696 z" />
        <path
           style="fill:#ffe4bf;fill-opacity:1;stroke:none;stroke-width:0.999998px;stroke-linecap:butt;stroke-linejoin:miter;stroke-opacity:1"
           d="m 2631.877,1436.418 -17.0313,9.834 17.0313,9.832 z"
           id="path213267" />
        <path
           style="fill:#ffe4bf;fill-opacity:1;stroke:none;stroke-width:0.999998px;stroke-linecap:butt;stroke-linejoin:miter;stroke-opacity:1"
           d="m 2631.877,1458.3535 -17.0313,9.834 17.0313,9.832 z"
           id="path213271" />
        <path
           id="path213273"
           style="fill:#6a3d00;fill-opacity:1;stroke:none;stroke-width:0.999998px;stroke-linecap:butt;stroke-linejoin:miter;stroke-opacity:1"
           d="m 2614.8457,1446.252 -18.998,10.9668 18.998,10.9687 17.0313,-9.834 v -2.2695 z" />
        <path
           style="fill:#ffe4bf;fill-opacity:1;stroke:none;stroke-width:0.999998px;stroke-linecap:butt;stroke-linejoin:miter;stroke-opacity:1"
           d="m 2595.8485,1457.2192 -18.997,-10.9679 18.997,-10.9679 18.997,10.9679 z"
           id="path213275" />
        <path
           style="fill:#6a3d00;fill-opacity:1;stroke:none;stroke-width:0.999998px;stroke-linecap:butt;stroke-linejoin:miter;stroke-opacity:1"
           d="m 2595.8485,1435.2834 -18.997,10.9679 -18.997,-10.9679 18.997,-10.968 z"
           id="path213277" />
        <path
           style="fill:#ffe4bf;fill-opacity:1;stroke:none;stroke-width:0.999998px;stroke-linecap:butt;stroke-linejoin:miter;stroke-opacity:1"
           d="m 2557.8544,1435.2834 -18.9969,-10.9679 18.9969,-10.9679 18.997,10.9679 z"
           id="path213279" />
        <path
           style="fill:#6a3d00;fill-opacity:1;stroke:none;stroke-width:0.999998px;stroke-linecap:butt;stroke-linejoin:miter;stroke-opacity:1"
           d="m 2557.8544,1413.3476 -18.9969,10.9679 -18.997,-10.9679 18.997,-10.9679 z"
           id="path213281" />
        <path
           style="fill:#ffe4bf;fill-opacity:1;stroke:none;stroke-width:0.999998px;stroke-linecap:butt;stroke-linejoin:miter;stroke-opacity:1"
           d="m 2519.8605,1413.3476 -18.9969,-10.9679 18.9969,-10.9679 18.997,10.9679 z"
           id="path213283" />
        <path
           style="fill:#6a3d00;fill-opacity:1;stroke:none;stroke-width:0.999998px;stroke-linecap:butt;stroke-linejoin:miter;stroke-opacity:1"
           d="m 2519.8605,1391.4118 -18.9969,10.9679 -18.997,-10.9679 18.997,-10.968 z"
           id="path213285" />
        <path
           style="fill:#5f3700;fill-opacity:1;stroke:none;stroke-width:0.999998px;stroke-linecap:butt;stroke-linejoin:miter;stroke-opacity:1"
           d="m 2407.8438,1480.2891 v 21.9355 l 112.0175,64.6738 v -21.9355 z"
           id="path219001" />
        <path
           style="fill:#3b2200;fill-opacity:1;stroke:none;stroke-width:0.999998px;stroke-linecap:butt;stroke-linejoin:miter;stroke-opacity:1"
           d="m 2631.877,1480.2891 -112.0157,64.6738 v 21.9355 l 112.0157,-64.6738 z"
           id="path219005" />
        <g
           id="g213327"
           transform="matrix(-0.58038507,0,0,0.58038507,4290.3783,742.11174)"
           style="stroke-width:1.72299">
          <path
             id="path213295"
             style="opacity:0.227293;fill:#000000;fill-opacity:1;stroke:none;stroke-width:2.58447;stroke-miterlimit:4;stroke-dasharray:none;stroke-opacity:1"
             d="m 3093.1427,1181.1023 -6.5463,3.7795 6.5463,3.7795 -6.5463,3.7795 -6.5464,-3.7795 -6.5463,3.7795 6.5463,3.7796 -6.5463,3.7795 -6.5463,-3.7795 -6.5464,3.7795 6.5464,3.7796 9.8195,5.6692 6.5463,-3.7796 39.278,26.4569 -3.2732,1.8897 6.5464,3.7796 32.7316,-18.8977 -6.5464,-3.7795 -3.2731,1.8897 -45.8244,-22.6772 6.5464,-3.4255 -6.5463,-4.1335 z"
             sodipodi:nodetypes="ccccccccccccccccccccccc" />
          <g
             id="g213325"
             transform="translate(6.5463731,3.7796216)"
             style="stroke-width:1.72299">
            <path
               id="path213297"
               style="fill:#d9c5ab;fill-opacity:1;stroke:none;stroke-width:2.58447;stroke-miterlimit:4;stroke-dasharray:none;stroke-opacity:1"
               d="m 3152.0596,1139.5274 -6.5463,3.7796 v 11.3386 l -6.5463,3.7794 v -11.3385 l -6.5464,3.7795 v 11.3386 l -6.5463,3.7795 v -11.3385 l -6.5463,3.7794 v 7.5591 11.3386 l 6.5463,-3.7796 -3.2731,51.0238 -3.2732,1.8897 v 7.5591 l 32.7316,-18.8977 v -7.559 l -3.2731,1.8897 -3.2733,-47.2441 6.5464,-3.4255 v -7.4783 z"
               sodipodi:nodetypes="ccccccccccccccccccccccc" />
            <path
               style="fill:#ccbba4;fill-opacity:1;stroke:none;stroke-width:1.72299px;stroke-linecap:butt;stroke-linejoin:miter;stroke-opacity:1"
               d="m 3158.606,1162.2048 -13.0926,-7.5591 v -11.3386 l 13.0926,7.5591 z"
               id="path213299" />
            <path
               style="fill:#e0caae;fill-opacity:1;stroke:none;stroke-width:1.72299px;stroke-linecap:butt;stroke-linejoin:miter;stroke-opacity:1"
               d="m 3135.6939,1232.126 3.2731,-51.0236 -13.0926,-7.5591 -3.2732,51.0237 z"
               id="path213301" />
            <path
               style="fill:#d9c5ab;fill-opacity:1;stroke:none;stroke-width:1.72299px;stroke-linecap:butt;stroke-linejoin:miter;stroke-opacity:1"
               d="m 3145.5134,1169.7638 -13.0927,-7.559 -6.5463,3.7795 13.0926,7.559 z"
               id="path213303" />
            <path
               style="fill:#d9c5ab;fill-opacity:1;stroke:none;stroke-width:1.72299px;stroke-linecap:butt;stroke-linejoin:miter;stroke-opacity:1"
               d="m 3158.606,1162.2048 -13.0926,-7.5591 -6.5464,3.7795 13.0927,7.5591 z"
               id="path213305" />
            <path
               style="fill:#ccbba4;fill-opacity:1;stroke:none;stroke-width:1.72299px;stroke-linecap:butt;stroke-linejoin:miter;stroke-opacity:1"
               d="m 3145.5134,1169.7638 -13.0927,-7.559 v -11.3386 l 13.0927,7.559 z"
               id="path213307" />
            <path
               style="fill:#d9c5ab;fill-opacity:1;stroke:none;stroke-width:1.72299px;stroke-linecap:butt;stroke-linejoin:miter;stroke-opacity:1"
               d="m 3165.1524,1215.1181 -13.0927,-7.559 -3.2732,1.8897 13.0927,7.5591 z"
               id="path213309" />
            <path
               id="path213311"
               style="fill:#ffe9cc;fill-opacity:1;stroke:none;stroke-width:2.58447;stroke-miterlimit:4;stroke-dasharray:none;stroke-opacity:1"
               d="m 3165.1523,1147.0866 -6.5463,3.7795 v 11.3386 l -6.5463,3.7795 v -11.3385 l -6.5464,3.7795 v 11.3386 l -6.5463,3.7795 v -11.3386 l -6.5463,3.7795 v 7.5591 11.3386 l 6.5463,-3.7796 -3.2731,51.0237 -3.2732,1.8897 v 7.5591 l 32.7316,-18.8977 v -7.559 l -3.2731,1.8897 -3.2733,-47.244 6.5464,-3.4255 v -7.4783 z"
               sodipodi:nodetypes="ccccccccccccccccccccccc" />
            <path
               style="fill:#e0caae;fill-opacity:1;stroke:none;stroke-width:1.72299px;stroke-linecap:butt;stroke-linejoin:miter;stroke-opacity:1"
               d="m 3132.4207,1234.0158 -13.0927,-7.5591 v 7.5591 l 13.0927,7.559 z"
               id="path213313" />
            <path
               style="fill:#d9c5ab;fill-opacity:1;stroke:none;stroke-width:1.72299px;stroke-linecap:butt;stroke-linejoin:miter;stroke-opacity:1"
               d="m 3122.6012,1224.567 13.0927,7.559 -3.2732,1.8898 -13.0927,-7.5591 z"
               id="path213315" />
            <path
               style="fill:#e0caae;fill-opacity:1;stroke:none;stroke-width:1.72299px;stroke-linecap:butt;stroke-linejoin:miter;stroke-opacity:1"
               d="m 3132.4207,1184.8819 -13.0927,-7.559 v -18.8977 l 13.0927,7.5591 z"
               id="path213317" />
            <path
               style="fill:#d9c5ab;fill-opacity:1;stroke:none;stroke-width:1.72299px;stroke-linecap:butt;stroke-linejoin:miter;stroke-opacity:1"
               d="m 3138.967,1162.2048 -13.0926,-7.5591 -6.5464,3.7795 13.0927,7.5591 z"
               id="path213319" />
            <path
               style="fill:#d9c5ab;fill-opacity:1;stroke:none;stroke-width:1.72299px;stroke-linecap:butt;stroke-linejoin:miter;stroke-opacity:1"
               d="m 3145.5134,1158.4252 -13.0927,-7.559 6.5463,-3.7796 13.0927,7.5591 z"
               id="path213321" />
            <path
               style="fill:#d9c5ab;fill-opacity:1;stroke:none;stroke-width:1.72299px;stroke-linecap:butt;stroke-linejoin:miter;stroke-opacity:1"
               d="m 3158.606,1150.8662 -13.0926,-7.5591 6.5463,-3.7795 13.0927,7.559 z"
               id="path213323" />
          </g>
        </g>
        <g
           id="g213355"
           transform="matrix(0.58038507,0,0,0.58038507,658.15739,733.33736)"
           style="stroke-width:1.72299">
          <path
             style="fill:#64410e;fill-opacity:1;stroke:none;stroke-width:1.72299px;stroke-linecap:butt;stroke-linejoin:miter;stroke-opacity:1"
             d="m 3286.2596,1235.9055 13.0927,-7.559 -3.2732,-1.8898 -13.0927,7.5591 z"
             id="path213329" />
          <path
             id="path213331"
             style="opacity:0.227;fill:#000000;fill-opacity:1;stroke-width:2.5845"
             d="m 3353.3336,1200.9547 -4.0064,2.313 5.5318,1.6861 -0.4687,0.2706 -5.5571,-1.6779 -4.5602,2.6444 21.4866,6.4871 -60.2057,19.4604 -2.9284,-1.9021 -6.5464,3.7795 32.7315,18.8977 6.5463,-3.7796 -3.2731,-1.8898 50.876,-29.3732 4.7679,-6.5324 -15.0744,-4.551 -2.7456,1.5852 -4.2986,-1.2978 2.7455,-1.5853 z"
             sodipodi:nodetypes="cccccccccccccccccccc" />
          <path
             id="path213333"
             style="fill:#117015;fill-opacity:0.988513;stroke-width:2.5845"
             d="m 3296.0743,1167.8961 v 4.6261 l 4.2261,0.9322 v 0.5412 l -4.2315,-0.9124 0.01,5.2828 16.3612,3.5279 -13.2498,46.5705 -3.1114,-2.0078 v 7.5592 l 32.7317,18.8977 v -7.5591 l -3.2732,-1.8898 v -58.7466 l -3.2732,-11.1747 -11.4785,-2.4751 v 3.1704 l -3.2732,-0.7058 v -3.1703 z"
             sodipodi:nodetypes="cccccccccccccccccccc" />
          <path
             style="fill:#5b3b0b;fill-opacity:1;stroke:none;stroke-width:1.72299px;stroke-linecap:butt;stroke-linejoin:miter;stroke-opacity:1"
             d="m 3282.9763,1180.6423 13.0926,-7.5591 4.2315,0.9124 -13.0926,7.5591 z"
             id="path213335" />
          <path
             style="fill:#6f480d;fill-opacity:1;stroke:none;stroke-width:1.72299px;stroke-linecap:butt;stroke-linejoin:miter;stroke-opacity:1"
             d="m 3297.6931,1181.7977 -3.2732,-0.7057 13.0926,-7.5592 3.2732,0.7058 z"
             id="path213337" />
          <path
             style="fill:#5b3b0b;fill-opacity:1;stroke:none;stroke-width:1.72299px;stroke-linecap:butt;stroke-linejoin:miter;stroke-opacity:1"
             d="m 3294.4199,1181.092 13.0926,-7.5592 v -3.1703 l -13.0926,7.5591 z"
             id="path213339" />
          <path
             id="path213341"
             style="fill:#855109;fill-opacity:0.988513;stroke-width:2.5845"
             d="m 3282.9817,1175.4552 v 4.6262 l 4.2261,0.9321 v 0.5412 l -4.2315,-0.9124 0.01,5.2828 16.3612,3.5279 -13.0879,46.4525 -3.2733,-1.8898 v 7.5592 l 32.7317,18.8977 v -7.5591 l -3.2732,-1.8898 v -58.7466 l -3.2732,-11.1747 -11.4785,-2.475 v 3.1703 l -3.2732,-0.7057 v -3.1704 z"
             sodipodi:nodetypes="cccccccccccccccccccc" />
          <path
             style="fill:#704810;fill-opacity:0.992157;stroke:none;stroke-width:1.72299px;stroke-linecap:butt;stroke-linejoin:miter;stroke-opacity:1"
             d="m 3315.7179,1260.4725 13.0927,-7.559 v -7.5591 l -13.0927,7.5591 z"
             id="path213343" />
          <path
             style="fill:#63400e;fill-opacity:0.992157;stroke:none;stroke-width:1.72299px;stroke-linecap:butt;stroke-linejoin:miter;stroke-opacity:1"
             d="m 3315.7179,1252.9135 -3.2731,-1.8898 13.0926,-7.5591 3.2732,1.8898 z"
             id="path213345" />
          <path
             style="fill:#6f480f;fill-opacity:1;stroke:none;stroke-width:1.72299px;stroke-linecap:butt;stroke-linejoin:miter;stroke-opacity:1"
             d="m 3325.5374,1243.4646 -13.0926,7.5591 v -58.7466 l 13.0926,-7.5591 z"
             id="path213347" />
          <path
             style="fill:#69450f;fill-opacity:1;stroke:none;stroke-width:1.72299px;stroke-linecap:butt;stroke-linejoin:miter;stroke-opacity:1"
             d="m 3325.5374,1184.718 -3.2732,-11.1747 -13.0655,7.6517 3.2461,11.0821 z"
             id="path213349" />
          <path
             style="fill:#774809;fill-opacity:1;stroke:none;stroke-width:1.72299px;stroke-linecap:butt;stroke-linejoin:miter;stroke-opacity:1"
             d="m 3322.2642,1173.5433 -11.4785,-2.4751 -13.0926,7.6459 11.5056,2.4809 z"
             id="path213351" />
          <path
             style="fill:#774809;fill-opacity:1;stroke:none;stroke-width:1.72299px;stroke-linecap:butt;stroke-linejoin:miter;stroke-opacity:1"
             d="m 3294.4199,1177.9216 13.0926,-7.5591 -11.4382,-2.4664 -13.0926,7.5591 z"
             id="path213353" />
        </g>
        <g
           id="g213371"
           transform="matrix(0.58038507,0,0,0.58038507,804.52264,838.19883)"
           style="stroke-width:1.72299">
          <path
             id="path213357"
             style="fill:#a1a1a1;fill-opacity:1;stroke:none;stroke-width:3.44599;stroke-opacity:0.6"
             d="m 2927.2383,908.91211 c -0.8916,-0.01 -1.7827,-0.002 -2.6719,0.0234 v 0.004 l -13.0957,7.55664 13.0957,1.70118 v 12.08007 c 7.3409,-0.83222 14.3779,-0.6286 21.1133,0.61133 6.8111,1.28361 13.2069,3.65173 19.1855,7.10352 0.5797,0.33466 1.1321,0.68901 1.6953,1.03515 l 17.2852,15.66797 c 0.2162,0.29516 0.4479,0.57958 0.6582,0.87891 4.9948,7.04607 7.4922,13.93647 7.4922,20.67187 0,3.70826 -0.9835,6.77249 -2.9512,9.19336 -1.8919,2.46459 -4.9948,4.45808 -9.3086,5.97852 l -4.6113,1.89844 -5.6055,2.30468 -0.01,0.004 v 0.002 c -4.783,1.81015 -8.3823,3.90286 -10.8496,6.26565 l -2.2285,1.2871 -13.4004,9.4101 13.0898,-7.5605 0.012,-0.01 c 0,0 0,0.01 -0.01,0.01 -2.119,3.6957 -3.1797,9.3662 -3.1797,17.0098 v 17.4824 l 8.627,4.9805 -0.043,1.1386 v 13.959 l 13.1016,-7.5605 v -13.959 l 0.3398,-9.1192 1.0195,-5.1972 c 0,0 0,-0.01 0.01,-0.01 l 1.5664,-2.0605 5.998,-2.3926 13.0899,-7.5606 c 6.8111,-2.576 11.5783,-5.6494 14.3027,-9.2226 2.7244,-3.64893 4.086,-8.35 4.086,-14.10158 0,-12.02949 -4.2339,-24.15971 -12.7051,-36.39063 v -0.01 l -0.012,-0.01 c -8.3993,-12.18574 -19.5583,-22.29881 -33.4786,-30.33594 v 0 c -7.7949,-4.5004 -15.3623,-7.81048 -22.7031,-9.92969 -6.3571,-1.81612 -12.6554,-2.75923 -18.8965,-2.82812 z m 65.8164,104.26559 -0.01,0.01 -6.3847,2.5566 -7.5684,3.9786 c 1.5172,-1.1637 4.0364,-2.4897 7.5684,-3.9825 z" />
          <path
             style="font-size:232.485px;line-height:1.25;-inkscape-font-specification:sans-serif;fill:#c6c6c6;fill-opacity:1;stroke-width:1.72299"
             d="m 2952.2645,1055.8146 23.0442,13.3045 v 28.8336 l -23.0442,-13.3045 z"
             id="path213359" />
          <path
             style="font-size:232.485px;line-height:1.25;-inkscape-font-specification:sans-serif;fill:#ffffff;fill-opacity:1;stroke-width:1.72299"
             d="m 2961.535,1059.5978 -21.6819,-12.5181 v -17.4818 q 0,-11.4653 3.1785,-17.0088 3.1785,-5.5436 13.3951,-9.4076 l 10.2166,-4.20454 q 6.4706,-2.28066 9.3085,-5.97754 2.9515,-3.63131 2.9515,-9.19369 0,-10.10311 -7.4922,-20.67222 -7.3787,-10.50359 -19.6386,-17.58185 -8.968,-5.17768 -19.1846,-7.10309 -10.1031,-1.8599 -21.1144,-0.61157 v -21.3414 q 10.6707,-0.3098 21.5685,2.80355 11.0112,3.17881 22.7036,9.92942 20.8873,12.05929 33.4878,30.34544 12.714,18.35169 12.714,36.40106 0,8.62733 -4.0866,14.10073 -4.0867,5.3598 -14.3033,9.2238 l -9.9896,3.995 q -5.3353,2.255 -7.6057,4.0092 -2.1568,1.7062 -3.065,4.0198 -0.6811,1.9907 -1.0216,5.1996 -0.3406,3.2089 -0.3406,9.1119 z"
             id="path213361" />
          <path
             style="font-size:232.485px;line-height:1.25;-inkscape-font-specification:sans-serif;fill:#ffffff;fill-opacity:1;stroke-width:1.72299"
             d="m 2939.1719,1063.3737 23.0442,13.3045 v 28.8336 l -23.0442,-13.3045 z"
             id="path213363" />
          <path
             d="m 2939.17,1063.37 13.09,-7.56 23.05,13.31 -13.09,7.56 -23.05,-13.31"
             id="path213365"
             style="fill:#7d7d7d;fill-opacity:1;stroke:none;stroke-width:3.44599;stroke-opacity:0.6" />
          <path
             d="m 2962.22,1076.68 13.09,-7.56 v 28.83 l -13.09,7.56 v -28.83"
             id="path213367"
             style="fill:#a1a1a1;fill-opacity:1;stroke:none;stroke-width:3.44599;stroke-opacity:0.6" />
          <path
             d="m 2939.17,1121.3302 13.09,-7.56 23.05,13.31 -13.09,7.56 -23.05,-13.31"
             id="path213369"
             style="opacity:0.44888;fill:#000000;fill-opacity:1;stroke:none;stroke-width:3.44599;stroke-opacity:0.6;filter:url(#filter206286)" />
        </g>
      </g>
    </g>
  </g>
</svg>
